<?xml version="1.0" encoding="UTF-8"?>
<!DOCTYPE svg PUBLIC "-//W3C//DTD SVG 1.1//EN" "http://www.w3.org/Graphics/SVG/1.1/DTD/svg11.dtd">
<svg version="1.1" xmlns="http://www.w3.org/2000/svg" xmlns:xlink="http://www.w3.org/1999/xlink" x="0px" y="0px" width="1100" height="800" viewBox="0, 0, 1100, 800">
  <g id="Layer 5">
    <g>
      <path d="M451.559,531.238 C451.559,531.238 122.848,476.035 118.66,384.262 C113.848,326.035 170.66,309.435 170.66,309.435 L195.944,270.746 C213.158,276.872 230.103,283.815 246.599,291.679 C255.177,295.769 264.296,300.159 271.5,306.5 C285.652,320.016 353.5,267.5 352.887,231.332 C351.645,213.093 331,202.166 316.557,195.358 C297.932,186.58 277.925,180.62 257.925,175.903 C260.27,172.314 262.359,168.544 264.961,165.137 C266.085,163.665 274.133,158.95 274.284,158.868 C281.103,155.205 288.6,152.907 296.158,151.372 C323.092,145.901 351.932,144.847 376.86,155.373 C632,263.102 756,290.888 756,290.888 C756,290.888 782.667,270.229 825.333,237.781 C868,205.333 975.806,253.046 1004.833,271.167 C1033.861,289.288 936,364.796 936,364.796 C936,364.796 975.548,380.581 968.833,401.667 C960.548,465.581 862.902,476.668 862.902,476.668 C862.902,476.668 770.301,532.383 706.223,537.75 C642.145,543.117 451.559,531.238 451.559,531.238 z" fill="#EAEAEA"/>
      <path d="M454.116,527.448 L454.058,527.438 L453.607,527.361 L452.704,527.205 L451.358,526.97 L449.584,526.656 L447.398,526.263 L444.814,525.792 L441.846,525.243 L436.698,524.272 L428.634,522.71 L419.318,520.847 L408.857,518.684 L397.373,516.225 L384.987,513.474 L371.818,510.435 L357.986,507.11 L343.611,503.504 L328.815,499.621 L306.058,493.275 L275.365,483.881 L252.681,476.178 L237.936,470.738 L223.565,465.037 L209.738,459.096 L196.574,452.922 L184.196,446.522 L172.716,439.902 L162.255,433.069 L152.927,426.034 L144.841,418.801 L138.106,411.38 L134.036,405.736 L131.801,401.936 L129.928,398.047 L128.46,394.11 L127.411,390.127 L126.793,386.095 L126.655,384.116 L126.655,384.127 L126.475,381.43 L126.377,376.307 L126.602,371.457 L127.125,366.842 L127.924,362.459 L128.976,358.301 L130.993,352.441 L134.371,345.382 L138.354,339.171 L142.781,333.731 L147.481,329.021 L152.286,324.999 L157.029,321.624 L161.543,318.857 L165.665,316.659 L169.228,314.993 L172.065,313.822 L174.012,313.111 L174.906,312.822 L174.808,312.855 L174.808,312.855 C176.445,312.359 177.671,311.586 178.265,310.677 L178.265,310.677 L203.548,271.989 L191.192,273.964 L204.046,278.712 L222.824,286.323 L235.083,291.765 L241.129,294.598 L241.065,294.568 L244.301,296.118 L250.683,299.318 L256.718,302.749 L262.251,306.568 L264.665,308.579 L264.64,308.558 L265.34,309.142 L267.934,310.677 L271.891,312.004 L276.635,312.622 L281.364,312.479 L285.678,311.793 L291.328,310.185 L298.679,307.101 L306.089,303.066 L313.505,298.228 L320.884,292.674 L328.109,286.503 L335.034,279.821 L341.493,272.737 L347.318,265.363 L352.334,257.81 L356.362,250.187 L359.219,242.603 L360.486,236.957 L360.857,233.23 L360.887,231.357 L360.887,231.357 C360.888,231.28 360.884,231.204 360.876,231.127 L360.876,231.127 L360.704,229.44 L360.006,225.985 L358.865,222.625 L357.327,219.432 L354.409,215.013 L349.527,209.653 L343.774,204.855 L337.543,200.652 L331.182,197.006 L325.03,193.876 L322.085,192.467 L322.085,192.467 C322.024,192.438 321.963,192.409 321.9,192.381 L321.9,192.381 L314.855,189.219 L300.007,183.431 L284.704,178.46 L269.263,174.224 L261.436,172.309 L265.551,177.111 L267.273,174.395 L270.719,168.961 L272.495,166.483 L272.224,166.813 L272.511,166.503 L273.067,166.092 L274.865,164.86 L277.846,162.976 L279.628,161.901 L280.271,161.521 L280.332,161.486 L279.979,161.677 L282.564,160.368 L287.386,158.341 L294.774,156.06 L299.509,155.004 L299.024,155.106 L304.092,154.135 L313.844,152.628 L323.386,151.675 L332.774,151.314 L341.946,151.601 L350.865,152.592 L359.543,154.35 L368.02,156.962 L371.94,158.527 L371.71,158.434 L383.572,163.425 L406.756,173.075 L429.185,182.275 L450.851,191.031 L471.753,199.352 L491.893,207.248 L511.274,214.728 L529.895,221.802 L547.758,228.479 L564.866,234.768 L581.22,240.681 L596.818,246.225 L611.664,251.41 L625.759,256.247 L639.105,260.744 L651.703,264.911 L663.552,268.758 L674.657,272.293 L685.018,275.528 L694.634,278.471 L703.51,281.132 L711.644,283.519 L719.04,285.644 L725.699,287.516 L731.619,289.143 L736.805,290.535 L741.257,291.703 L744.977,292.655 L747.966,293.401 L750.225,293.951 L751.753,294.313 L752.552,294.498 L752.7,294.532 L752.7,294.532 C756.311,295.349 760.573,294.722 762.722,293.057 L762.722,293.057 L762.798,292.998 L763.414,292.522 L764.629,291.581 L766.432,290.189 L768.804,288.359 L771.731,286.102 L775.197,283.433 L779.186,280.364 L783.683,276.909 L788.673,273.079 L794.138,268.889 L800.065,264.351 L806.437,259.479 L813.238,254.285 L820.454,248.782 L828.067,242.984 L832.018,239.979 L831.889,240.074 L833.935,238.612 L837.856,236.318 L841.841,234.55 L846.008,233.166 L850.365,232.123 L854.943,231.385 L859.77,230.932 L864.868,230.75 L873.211,230.98 L885.015,232.2 L897.34,234.349 L910.092,237.318 L922.976,240.966 L935.725,245.138 L948.088,249.674 L959.827,254.411 L970.707,259.183 L980.503,263.828 L986.972,267.111 L990.816,269.164 L994.286,271.103 L997.322,272.888 L998.628,273.692 L998.317,273.488 L999.584,274.377 L1000.931,275.853 L1001.724,277.493 L1002.165,279.516 L1002.177,281.901 L1001.721,284.61 L1000.791,287.597 L999.402,290.82 L997.584,294.241 L995.371,297.825 L991.374,303.465 L985.043,311.249 L977.876,319.136 L970.183,326.943 L962.299,334.463 L954.554,341.497 L947.282,347.845 L942.344,352.031 L939.373,354.503 L936.7,356.698 L934.372,358.586 L932.43,360.143 L930.917,361.344 L929.874,362.164 L929.34,362.579 L929.281,362.625 L929.281,362.625 C927.063,364.341 927.788,366.617 930.962,367.903 L930.962,367.903 L931.073,367.948 L931.817,368.262 L933.258,368.903 L935.294,369.864 L937.801,371.128 L940.654,372.678 L945.357,375.531 L951.662,380.17 L955.776,384.101 L958.032,386.889 L959.855,389.884 L961.079,393.005 L961.604,396.238 L961.334,399.578 L960.897,401.164 L960.897,401.164 C960.88,401.23 960.866,401.296 960.856,401.362 L960.856,401.362 L960.403,404.319 L959.149,409.862 L957.448,415.056 L955.331,419.956 L952.832,424.571 L949.987,428.91 L946.828,432.984 L943.391,436.8 L939.707,440.369 L935.81,443.699 L929.574,448.311 L920.818,453.685 L911.84,458.215 L902.837,462.008 L894.062,465.125 L885.777,467.621 L878.247,469.553 L873.312,470.654 L870.415,471.239 L867.8,471.728 L865.561,472.114 L863.731,472.405 L862.344,472.607 L861.436,472.73 L861.037,472.779 L861.082,472.773 L861.082,472.773 C859.389,472.971 857.87,473.439 856.757,474.107 L856.757,474.107 L856.691,474.146 L856.179,474.451 L855.163,475.05 L853.663,475.926 L851.699,477.059 L849.296,478.43 L846.473,480.019 L843.255,481.808 L839.663,483.777 L835.719,485.906 L829.184,489.362 L819.45,494.348 L808.729,499.617 L797.192,505.018 L785.023,510.394 L772.409,515.588 L759.543,520.441 L746.626,524.795 L733.868,528.493 L721.5,531.379 L709.777,533.308 L704.561,533.837 L705.001,533.797 L701.908,534.036 L695.454,534.423 L688.365,534.72 L680.624,534.937 L672.303,535.074 L663.467,535.137 L649.373,535.101 L629.405,534.835 L608.542,534.358 L587.238,533.712 L565.963,532.94 L545.19,532.082 L525.387,531.183 L511.46,530.508 L502.722,530.066 L494.481,529.638 L486.807,529.229 L479.754,528.844 L473.381,528.489 L467.745,528.169 L462.907,527.888 L458.922,527.654 L455.85,527.47 L453.748,527.343 L452.676,527.277 L452.547,527.269 L452.547,527.269 C448.162,526.996 444.166,528.552 443.62,530.744 C443.075,532.936 446.187,534.935 450.572,535.207 C450.572,535.207 450.572,535.207 450.572,535.207 L450.719,535.217 L451.818,535.284 L453.945,535.413 L457.046,535.599 L461.061,535.835 L465.933,536.117 L471.603,536.44 L478.014,536.797 L485.108,537.184 L492.827,537.595 L501.109,538.026 L509.909,538.47 L523.935,539.15 L543.87,540.055 L564.8,540.918 L586.265,541.698 L607.811,542.35 L628.977,542.832 L649.288,543.101 L663.695,543.136 L672.831,543.07 L681.52,542.924 L689.714,542.692 L697.367,542.365 L704.348,541.942 L707.445,541.703 L707.445,541.703 C707.592,541.692 707.739,541.678 707.885,541.663 L707.885,541.663 L714.843,540.897 L728.295,538.622 L741.905,535.41 L755.576,531.426 L769.182,526.826 L782.58,521.763 L795.616,516.39 L808.127,510.858 L819.944,505.323 L830.9,499.936 L840.807,494.859 L847.456,491.343 L851.48,489.17 L855.148,487.16 L858.437,485.332 L861.325,483.705 L863.791,482.298 L865.812,481.132 L867.365,480.225 L868.429,479.597 L868.978,479.27 L869.047,479.229 L864.722,480.563 L864.909,480.541 L865.617,480.452 L866.857,480.283 L868.592,480.026 L870.789,479.675 L873.412,479.219 L876.428,478.653 L879.86,477.953 L885.58,476.663 L894.065,474.464 L903.358,471.636 L913.178,468.113 L923.237,463.83 L933.242,458.726 L942.841,452.783 L949.63,447.73 L953.934,444.029 L957.987,440.076 L961.753,435.867 L965.195,431.396 L968.28,426.654 L970.973,421.639 L973.24,416.342 L975.048,410.76 L976.357,404.93 L976.81,401.972 L976.769,402.17 L977.326,399.834 L977.541,395.532 L976.76,391.417 L975.138,387.516 L972.827,383.844 L969.911,380.353 L964.872,375.656 L957.689,370.434 L952.414,367.254 L949.151,365.489 L946.264,364.04 L943.881,362.921 L942.127,362.144 L941.154,361.736 L941.038,361.688 L942.719,366.967 L942.802,366.903 L943.37,366.46 L944.453,365.609 L946.006,364.377 L947.99,362.786 L950.364,360.86 L953.086,358.624 L956.123,356.096 L961.164,351.823 L968.569,345.357 L976.469,338.178 L984.536,330.478 L992.443,322.445 L999.866,314.261 L1006.458,306.134 L1010.662,300.18 L1013.053,296.286 L1015.05,292.488 L1016.608,288.801 L1017.672,285.233 L1018.176,281.793 L1018.031,278.482 L1017.117,275.31 L1015.273,272.307 L1012.619,269.739 L1011.349,268.846 L1011.349,268.846 C1011.25,268.777 1011.146,268.709 1011.038,268.642 L1011.038,268.642 L1009.509,267.704 L1006.207,265.767 L1002.496,263.696 L998.367,261.495 L991.508,258.021 L981.256,253.168 L969.87,248.183 L957.548,243.222 L944.477,238.441 L930.839,233.999 L916.805,230.057 L902.531,226.782 L888.143,224.355 L873.968,222.988 L863.562,222.777 L856.61,223.089 L849.808,223.809 L843.23,224.962 L836.958,226.569 L831.073,228.633 L825.64,231.152 L820.826,234.025 L818.778,235.488 L818.778,235.488 C818.734,235.52 818.691,235.551 818.649,235.583 L818.649,235.583 L814.694,238.592 L807.074,244.395 L799.854,249.902 L793.047,255.1 L786.67,259.976 L780.739,264.518 L775.268,268.711 L770.275,272.544 L765.773,276.003 L761.779,279.075 L758.309,281.747 L755.378,284.007 L753.001,285.841 L751.195,287.236 L749.975,288.18 L749.358,288.657 L749.278,288.719 L759.3,287.244 L759.266,287.237 L758.611,287.086 L757.227,286.758 L755.115,286.244 L752.27,285.534 L748.692,284.619 L744.378,283.488 L739.328,282.132 L733.539,280.542 L727.014,278.709 L719.748,276.622 L711.74,274.271 L702.989,271.648 L693.494,268.743 L683.255,265.547 L672.268,262.049 L660.532,258.24 L648.05,254.111 L634.815,249.652 L620.829,244.853 L606.09,239.705 L590.595,234.198 L574.348,228.324 L557.342,222.072 L539.577,215.433 L521.052,208.396 L501.769,200.954 L481.721,193.094 L460.91,184.81 L439.336,176.091 L416.995,166.927 L393.875,157.304 L382.01,152.312 L382.01,152.312 C381.934,152.28 381.858,152.249 381.78,152.219 L381.78,152.219 L376.263,150.105 L365.384,146.902 L354.178,144.766 L342.819,143.613 L331.458,143.341 L320.193,143.836 L309.098,144.988 L298.366,146.665 L293.292,147.638 L293.292,147.638 C293.128,147.669 292.966,147.703 292.807,147.74 L292.807,147.74 L286.247,149.291 L277.032,152.242 L271.179,154.747 L268.589,156.059 L268.589,156.059 C268.467,156.121 268.349,156.184 268.236,156.25 L268.236,156.25 L268.062,156.35 L267.3,156.801 L265.283,158.022 L261.865,160.196 L259.384,161.946 L257.987,163.147 L257.698,163.461 L257.698,163.461 C257.598,163.569 257.508,163.679 257.427,163.791 L257.427,163.791 L255.468,166.543 L252.022,171.976 L250.299,174.695 L250.299,174.695 C249.101,176.584 250.852,178.627 254.414,179.497 L254.414,179.497 L261.583,181.242 L276.005,185.174 L290.182,189.746 L304.166,195.172 L311.214,198.335 L311.029,198.249 L313.633,199.491 L319.151,202.28 L324.722,205.438 L330.087,208.998 L334.992,212.997 L339.23,217.542 L341.782,221.325 L343.098,223.986 L344.089,226.8 L344.725,229.847 L344.898,231.537 L344.887,231.307 L344.875,232.848 L344.583,236.078 L343.491,241.132 L340.89,248.15 L337.146,255.293 L332.433,262.428 L326.931,269.422 L320.823,276.145 L314.296,282.466 L307.546,288.255 L300.782,293.377 L294.246,297.687 L288.252,301.033 L283.106,303.321 L280.193,304.278 L279.269,304.548 L279.187,304.724 L279.592,304.992 L279.729,305.271 L279.064,305.029 L278.36,304.442 L278.36,304.442 C278.352,304.435 278.343,304.428 278.335,304.421 L278.335,304.421 L275.176,301.853 L268.716,297.456 L262.013,293.67 L255.371,290.342 L252.133,288.79 L252.133,288.79 C252.112,288.78 252.09,288.77 252.069,288.76 L252.069,288.76 L245.701,285.781 L232.898,280.108 L213.556,272.279 L200.696,267.528 L200.696,267.528 C200.008,267.274 199.243,267.077 198.43,266.944 C194.231,266.257 189.713,267.403 188.34,269.503 L188.34,269.503 L163.055,308.193 L166.512,306.015 L166.088,306.147 L164.507,306.676 L161.836,307.671 L158.261,309.167 L153.962,311.203 L149.119,313.816 L143.915,317.04 L138.532,320.911 L133.15,325.464 L127.95,330.729 L123.111,336.74 L118.807,343.527 L115.224,351.087 L113.102,357.3 L111.989,361.736 L111.15,366.393 L110.606,371.274 L110.378,376.384 L110.484,381.696 L110.665,384.397 L110.665,384.397 C110.665,384.401 110.665,384.404 110.665,384.408 L110.665,384.408 L110.841,386.717 L111.551,391.181 L112.735,395.586 L114.376,399.928 L116.458,404.207 L118.995,408.464 L123.546,414.696 L130.885,422.714 L139.599,430.46 L149.558,437.937 L160.632,445.145 L172.697,452.085 L185.632,458.759 L199.313,465.165 L213.622,471.305 L228.438,477.177 L243.693,482.796 L267.01,490.704 L298.263,500.262 L321.377,506.704 L336.434,510.654 L351.051,514.319 L365.108,517.697 L378.489,520.785 L391.074,523.579 L402.742,526.077 L413.374,528.275 L422.854,530.17 L431.051,531.757 L436.29,532.745 L439.329,533.307 L441.984,533.791 L444.237,534.196 L446.076,534.522 L447.483,534.767 L448.444,534.933 L448.941,535.018 L449.002,535.028 C453.189,535.734 457.727,534.61 459.139,532.516 C460.551,530.423 458.302,528.154 454.116,527.448 L454.116,527.448" fill="#000000"/>
    </g>
    <g>
      <path d="M192.224,268.461 C191.849,267.218 256.686,291.854 270.839,305.369 C284.991,318.885 352.839,266.369 352.225,230.201 C351.612,194.033 253.557,175.127 253.557,175.127 C253.557,175.127 192.224,268.461 192.224,268.461 z" fill="#AAB6FF" fill-opacity="0.5"/>
    </g>
    <path d="M868.754,247.836 C868.754,247.836 930.077,260.402 934.658,269.437 C939.238,278.472 901.856,303.551 892,307.058 C882.144,310.564 814.129,294.594 823,273 C837.859,236.834 868.754,247.836 868.754,247.836 z" fill="#6E0000"/>
    <path d="M170.5,308.673 C170.5,308.673 252.5,278.5 251.5,369.5 C470.531,463.434 862.742,475.906 862.742,475.906" fill-opacity="0" stroke="#000000" stroke-width="8"/>
    <g>
      <path d="M170.66,309.435 C170.66,309.435 113.848,326.035 118.66,384.262 C122.848,476.035 451.559,531.238 451.559,531.238 C451.559,531.238 642.145,543.117 706.223,537.75 C770.301,532.383 862.902,476.668 862.902,476.668 C862.902,476.668 470.531,463.434 251.5,369.5 C252.5,278.5 170.66,309.435 170.66,309.435 z" fill="#6E0000"/>
      <path d="M166.509,306.016 L166.349,306.064 L164.851,306.555 L162.198,307.529 L158.63,309.004 L154.33,311.018 L149.48,313.609 L144.26,316.812 L138.853,320.663 L133.439,325.199 L128.2,330.451 L123.317,336.454 L118.967,343.239 L115.327,350.837 L113.154,357.124 L112.019,361.597 L111.17,366.256 L110.617,371.141 L110.379,376.254 L110.479,381.601 L110.664,384.395 L110.664,384.395 C110.665,384.4 110.665,384.404 110.665,384.409 L110.665,384.409 L110.823,386.552 L111.505,390.965 L112.667,395.375 L114.289,399.725 L116.354,404.012 L118.844,408.235 L123.306,414.402 L130.583,422.415 L139.284,430.203 L149.242,437.716 L160.325,444.957 L172.404,451.925 L185.355,458.622 L199.054,465.049 L213.381,471.205 L228.215,477.091 L243.438,482.706 L266.693,490.602 L297.983,500.18 L321.2,506.656 L336.303,510.62 L350.929,514.289 L364.997,517.671 L378.384,520.761 L390.974,523.557 L402.649,526.058 L413.287,528.257 L422.772,530.154 L430.983,531.745 L436.244,532.736 L439.295,533.301 L441.948,533.784 L444.202,534.19 L446.042,534.516 L447.451,534.762 L448.416,534.928 L448.918,535.014 L449,535.028 L449,535.028 C449.511,535.114 450.039,535.174 450.574,535.208 L450.574,535.208 L450.711,535.216 L451.804,535.283 L453.933,535.412 L457.032,535.598 L461.046,535.834 L465.917,536.116 L471.587,536.439 L477.996,536.796 L485.088,537.183 L492.805,537.594 L501.088,538.024 L509.878,538.468 L523.886,539.148 L543.804,540.052 L564.721,540.915 L586.171,541.694 L607.69,542.347 L628.825,542.83 L649.116,543.1 L663.539,543.137 L672.681,543.072 L681.336,542.928 L689.488,542.7 L697.085,542.38 L704.084,541.96 L707.443,541.703 L707.443,541.703 C707.592,541.692 707.741,541.678 707.889,541.662 L707.889,541.662 L713.974,541.015 L727.431,538.794 L741.286,535.572 L755.12,531.569 L768.837,526.949 L782.314,521.868 L795.405,516.48 L807.955,510.936 L819.804,505.39 L830.782,499.995 L840.721,494.904 L847.399,491.373 L851.44,489.192 L855.11,487.18 L858.401,485.351 L861.293,483.723 L863.759,482.316 L865.782,481.149 L867.339,480.241 L868.405,479.612 L868.96,479.281 L869.046,479.23 L869.046,479.23 C871.876,477.534 871.419,475.011 868.026,473.596 C866.732,473.056 865.129,472.735 863.447,472.677 L863.447,472.677 L863.381,472.675 L862.832,472.655 L861.737,472.615 L860.098,472.55 L857.935,472.462 L855.253,472.347 L852.068,472.204 L848.395,472.032 L844.245,471.829 L839.63,471.593 L834.565,471.324 L829.061,471.019 L820.002,470.491 L806.516,469.649 L791.523,468.638 L775.113,467.445 L757.392,466.058 L738.465,464.465 L718.433,462.653 L697.405,460.61 L675.482,458.324 L652.767,455.783 L629.366,452.974 L605.381,449.886 L580.92,446.507 L556.083,442.824 L530.977,438.826 L505.704,434.5 L480.371,429.834 L455.079,424.818 L429.935,419.439 L405.044,413.687 L380.507,407.548 L356.432,401.013 L332.919,394.07 L310.074,386.708 L287.999,378.917 L266.798,370.685 L256.633,366.432 L259.5,369.493 L259.487,365.318 L259.109,357.396 L258.283,350.105 L257.035,343.442 L255.392,337.38 L253.378,331.885 L251.016,326.928 L248.326,322.479 L245.327,318.508 L242.033,314.988 L238.457,311.892 L234.611,309.197 L228.537,305.957 L219.772,302.86 L210.363,301.026 L201.031,300.393 L192.294,300.693 L184.488,301.613 L177.821,302.859 L172.466,304.17 L169.348,305.071 L167.768,305.572 L166.684,305.939 L166.059,306.162 L165.885,306.226 L165.885,306.226 C162.34,307.544 161.604,310.05 164.242,311.823 C166.879,313.595 171.891,313.963 175.435,312.644 C175.435,312.644 175.435,312.644 175.435,312.644 L175.38,312.664 L175.681,312.554 L176.392,312.311 L177.416,311.979 L179.586,311.335 L183.548,310.329 L188.347,309.377 L193.671,308.663 L199.248,308.343 L204.928,308.551 L210.751,309.467 L216.953,311.476 L221.639,313.881 L224.633,315.92 L227.56,318.399 L230.37,321.35 L233.017,324.804 L235.455,328.789 L237.642,333.332 L239.538,338.457 L241.106,344.191 L242.309,350.559 L243.114,357.586 L243.487,365.328 L243.5,369.507 L243.5,369.507 C243.504,370.689 244.554,371.81 246.367,372.568 L246.367,372.568 L256.986,377.004 L278.772,385.452 L301.405,393.432 L324.782,400.958 L348.796,408.044 L373.348,414.703 L398.329,420.948 L423.642,426.795 L449.178,432.254 L474.838,437.341 L500.52,442.068 L526.117,446.448 L551.53,450.493 L576.655,454.218 L601.389,457.633 L625.628,460.753 L649.269,463.589 L672.211,466.155 L694.35,468.463 L715.582,470.525 L735.803,472.353 L754.913,473.962 L772.806,475.362 L789.38,476.566 L804.533,477.588 L818.149,478.438 L827.295,478.97 L832.868,479.279 L838.002,479.552 L842.683,479.791 L846.9,479.997 L850.637,480.172 L853.882,480.317 L856.624,480.435 L858.85,480.526 L860.542,480.592 L861.693,480.635 L862.28,480.656 L862.357,480.659 L856.758,474.106 L856.709,474.135 L856.203,474.437 L855.19,475.035 L853.692,475.909 L851.731,477.041 L849.328,478.412 L846.509,480 L843.292,481.788 L839.703,483.755 L835.775,485.876 L829.271,489.316 L819.567,494.289 L808.869,499.55 L797.363,504.941 L785.234,510.304 L772.676,515.483 L759.888,520.318 L747.082,524.652 L734.487,528.33 L722.364,531.206 L710.647,533.19 L704.557,533.838 L705.003,533.797 L702.171,534.018 L695.737,534.408 L688.591,534.712 L680.808,534.932 L672.452,535.072 L663.624,535.137 L649.544,535.103 L629.556,534.838 L608.663,534.362 L587.333,533.716 L566.042,532.943 L545.256,532.085 L525.436,531.186 L511.491,530.509 L502.743,530.067 L494.503,529.639 L486.827,529.23 L479.773,528.845 L473.397,528.49 L467.762,528.17 L462.922,527.889 L458.936,527.655 L455.862,527.471 L453.761,527.343 L452.684,527.277 L452.544,527.268 L454.118,527.448 L454.08,527.442 L453.635,527.366 L452.736,527.211 L451.391,526.976 L449.619,526.662 L447.433,526.269 L444.848,525.798 L441.892,525.251 L436.765,524.285 L428.717,522.727 L419.405,520.865 L408.949,518.704 L397.473,516.247 L385.093,513.498 L371.93,510.461 L358.107,507.139 L343.742,503.537 L328.993,499.669 L306.338,493.357 L275.681,483.983 L252.936,476.268 L238.159,470.824 L223.805,465.136 L209.997,459.213 L196.852,453.059 L184.489,446.682 L173.023,440.09 L162.571,433.291 L153.241,426.291 L145.143,419.099 L138.347,411.674 L134.187,405.965 L131.905,402.131 L130.015,398.25 L128.528,394.321 L127.457,390.343 L126.812,386.26 L126.655,384.115 L126.656,384.129 L126.479,381.525 L126.375,376.437 L126.591,371.59 L127.105,366.979 L127.894,362.598 L128.923,358.478 L130.891,352.691 L134.21,345.67 L138.147,339.457 L142.531,334.009 L147.193,329.286 L151.966,325.247 L156.685,321.852 L161.183,319.064 L165.296,316.844 L168.858,315.156 L171.704,313.964 L173.668,313.231 L174.645,312.905 L174.811,312.854 C178.588,311.708 179.791,309.248 177.499,307.36 C175.207,305.471 170.286,304.869 166.509,306.016 L166.509,306.016" fill="#000000"/>
    </g>
    <path d="M244.062,209.256 L286.261,194.285" fill-opacity="0" stroke="#AAB6FF" stroke-width="8"/>
    <path d="M237.923,229.352 L306.528,206.613" fill-opacity="0" stroke="#AAB6FF" stroke-width="8"/>
    <path d="M267.831,290.888 L310.104,278" fill-opacity="0" stroke="#AAB6FF" stroke-width="8"/>
    <path d="M259.123,237.781 L301.395,224.893" fill-opacity="0" stroke="#AAB6FF" stroke-width="8"/>
    <g>
      <path d="M409.359,613.893 C409.359,613.893 473.616,647.226 525.678,623.551 C586.141,581.616 593.919,573.509 538.5,533.5 C509.533,497.411 422.199,516.439 422.199,516.439" fill="#EAEAEA"/>
      <path d="M405.774,615.636 L405.82,615.659 L406.221,615.862 L406.99,616.241 L408.105,616.776 L410.383,617.827 L414.503,619.619 L419.772,621.741 L426.075,624.056 L433.306,626.43 L441.366,628.733 L450.155,630.828 L459.581,632.581 L469.549,633.851 L479.966,634.491 L490.72,634.348 L501.672,633.268 L512.646,631.1 L523.445,627.717 L528.885,625.469 L528.885,625.469 C529.206,625.335 529.491,625.182 529.736,625.012 L529.736,625.012 L532.53,623.072 L537.896,619.327 L542.958,615.757 L547.712,612.351 L552.16,609.094 L556.298,605.975 L561.91,601.536 L568.294,595.979 L573.423,590.722 L577.256,585.667 L579.746,580.711 L580.83,575.765 L580.452,570.765 L578.59,565.661 L575.26,560.389 L571.796,556.251 L569.038,553.394 L565.949,550.469 L562.509,547.436 L558.715,544.281 L554.566,540.991 L550.06,537.553 L545.195,533.953 L542.618,532.082 L543.103,532.524 L541.704,530.873 L538.536,527.67 L534.99,524.722 L531.128,522.064 L526.977,519.688 L522.571,517.586 L515.647,514.957 L505.821,512.279 L495.5,510.449 L485.045,509.383 L474.696,508.953 L464.67,509.033 L455.172,509.501 L446.404,510.24 L438.564,511.136 L431.858,512.076 L426.489,512.951 L423.441,513.502 L421.93,513.793 L420.892,514.002 L420.332,514.119 L420.222,514.142 L420.222,514.142 C417.686,514.688 416.515,516.159 417.607,517.427 C418.698,518.695 421.64,519.281 424.176,518.735 C424.176,518.735 424.176,518.735 424.176,518.735 L424.194,518.731 L424.628,518.64 L425.528,518.458 L426.845,518.203 L429.591,517.704 L434.564,516.89 L440.801,516.009 L448.077,515.17 L456.169,514.476 L464.852,514.032 L473.899,513.937 L483.089,514.286 L492.21,515.171 L501.079,516.681 L509.626,518.949 L515.69,521.214 L519.466,522.989 L523.054,525.015 L526.433,527.309 L529.577,529.891 L532.496,532.824 L533.897,534.476 L533.897,534.476 C534.028,534.631 534.191,534.779 534.382,534.918 L534.382,534.918 L536.908,536.752 L541.695,540.293 L546.107,543.658 L550.145,546.858 L553.811,549.903 L557.107,552.804 L560.036,555.572 L562.579,558.19 L565.734,561.91 L568.76,566.58 L570.462,570.981 L570.885,575.243 L570.04,579.508 L567.899,583.903 L564.432,588.533 L559.621,593.489 L553.458,598.864 L547.965,603.211 L543.902,606.274 L539.513,609.488 L534.801,612.865 L529.768,616.414 L524.416,620.149 L521.62,622.091 L522.471,621.633 L518.082,623.497 L508.908,626.462 L499.673,628.369 L490.404,629.351 L481.149,629.526 L471.993,629.002 L463.05,627.892 L454.448,626.312 L446.318,624.389 L438.79,622.249 L431.99,620.024 L426.042,617.846 L421.064,615.846 L417.165,614.153 L415.026,613.167 L414.009,612.68 L413.329,612.345 L412.993,612.175 L412.945,612.151 C411.02,611.161 407.854,611.138 405.874,612.101 C403.894,613.063 403.849,614.646 405.774,615.636 L405.774,615.636" fill="#000000"/>
    </g>
    <g>
      <path d="M409.359,613.893 C396.108,612.147 388.24,588.916 391.785,562.005 C395.331,535.093 408.948,514.693 422.199,516.439 C435.451,518.185 443.319,541.416 439.773,568.327 C436.228,595.239 422.611,615.639 409.359,613.893 z" fill="#EAEAEA"/>
      <path d="M411.088,611.547 L409.863,611.322 L408.631,610.797 L407.349,609.935 L405.786,608.563 L404.154,606.697 L402.572,604.382 L401.103,601.665 L399.782,598.583 L398.632,595.172 L397.669,591.465 L396.602,585.393 L395.951,576.545 L396.252,567.042 L396.778,562.138 L396.77,562.2 L397.55,557.235 L399.739,547.95 L402.667,539.591 L406.207,532.322 L409.159,527.735 L411.217,525.147 L413.342,522.929 L415.47,521.143 L417.529,519.829 L419.39,519.021 L420.838,518.721 L421.669,518.814 L421.409,518.907 L420.471,518.784 L421.695,519.01 L422.928,519.535 L424.21,520.397 L425.773,521.769 L427.405,523.635 L428.986,525.95 L430.455,528.667 L431.777,531.749 L432.927,535.16 L433.889,538.867 L434.957,544.938 L435.607,553.787 L435.306,563.289 L434.78,568.194 L434.789,568.132 L434.009,573.097 L431.82,582.382 L428.892,590.741 L425.352,598.01 L422.399,602.597 L420.342,605.184 L418.217,607.403 L416.088,609.188 L414.029,610.503 L412.169,611.311 L410.721,611.611 L409.89,611.518 L410.148,611.425 L414.321,613.582 L414.321,613.584 L414.321,613.584 C413.979,612.214 411.481,611.242 408.74,611.412 C406,611.583 404.056,612.833 404.398,614.203 L404.398,614.204 L404.398,614.204 C404.674,615.307 406.375,616.186 408.57,616.362 L408.57,616.362 L411.315,616.467 L415.453,616.016 L418.947,614.987 L421.969,613.543 L424.701,611.729 L427.244,609.553 L429.64,607.024 L431.921,604.124 L435.069,599.191 L438.742,591.603 L441.751,582.968 L443.978,573.489 L444.758,568.522 L444.758,568.522 C444.761,568.502 444.764,568.481 444.766,568.46 L444.766,568.46 L445.305,563.368 L445.6,553.603 L444.918,544.5 L443.806,538.222 L442.787,534.326 L441.552,530.696 L440.104,527.354 L438.437,524.315 L436.533,521.593 L434.346,519.195 L431.778,517.129 L428.631,515.428 L425.156,514.319 L423.928,514.093 L423.928,514.093 C423.623,514.037 423.309,513.996 422.989,513.97 L422.989,513.97 L420.243,513.865 L416.105,514.316 L412.611,515.345 L409.59,516.788 L406.857,518.603 L404.314,520.778 L401.918,523.308 L399.637,526.208 L396.489,531.141 L392.816,538.729 L389.807,547.364 L387.581,556.843 L386.8,561.809 L386.8,561.809 C386.797,561.83 386.794,561.851 386.792,561.872 L386.792,561.872 L386.253,566.964 L385.958,576.729 L386.64,585.831 L387.753,592.109 L388.772,596.006 L390.006,599.636 L391.454,602.978 L393.122,606.017 L395.026,608.739 L397.212,611.136 L399.781,613.203 L402.927,614.904 L406.403,616.013 L407.631,616.239 C410.222,616.716 413.096,616.053 414.051,614.758 C415.006,613.462 413.679,612.025 411.088,611.547 L411.088,611.547" fill="#000000"/>
    </g>
    <path d="M413.109,545.481 L413.085,544.268 L413.413,542.054 L414.154,540.034 L415.226,538.246 L416.529,536.795 L417.915,535.792 L419.099,535.358 L419.496,535.508 L419.04,535.817 L419.369,536.37 L420.485,537.82 L421.718,540.306 L422.762,543.846 L423.468,548.482 L423.731,554.274 L423.587,559.408 L423.309,563.227 L423.112,565.257 L423.113,565.24 L422.68,569.009 L421.679,575.729 L420.518,581.432 L419.226,586.19 L417.832,590.06 L416.37,593.1 L414.885,595.359 L413.449,596.876 L412.203,597.677 L411.487,597.805 L411.735,597.547 L412.209,597.369 L411.414,596.666 L409.762,594.675 L409.099,593.474 L409.099,593.474 C408.518,592.48 406.435,591.91 404.447,592.2 C402.459,592.491 401.319,593.533 401.901,594.526 L402.94,596.233 L405.752,599.125 L409.027,600.765 L412.462,601.28 L415.809,600.87 L418.278,599.876 L420.251,598.454 L422.016,596.521 L423.663,593.974 L425.213,590.724 L426.658,586.694 L427.98,581.811 L429.158,576.008 L430.168,569.225 L430.601,565.455 L430.601,565.455 C430.602,565.449 430.602,565.444 430.603,565.438 L430.603,565.438 L430.804,563.363 L431.086,559.46 L431.229,554.187 L430.945,548.195 L430.179,543.289 L428.98,539.369 L427.352,536.312 L425.138,533.974 L421.823,532.335 L417.56,531.885 L414.142,532.544 L411.652,533.729 L409.659,535.291 L408.03,537.19 L406.771,539.375 L405.932,541.787 L405.585,544.305 L405.61,545.519 C405.631,546.555 407.327,547.386 409.398,547.375 C411.469,547.364 413.131,546.516 413.109,545.481 L413.109,545.481" fill="#000000"/>
    <g>
      <path d="M424.86,550.175 C396.36,546.675 393.86,582.675 419.36,586.175" fill="#2B2B2B"/>
      <path d="M425.838,547.215 L423.243,547 L416.996,547.185 L410.835,548.444 L405.807,550.606 L402.011,553.348 L399.249,556.466 L397.344,559.849 L396.198,563.413 L395.761,567.078 L396.015,570.759 L396.961,574.369 L398.616,577.823 L401.018,581.035 L404.245,583.921 L408.43,586.38 L413.747,588.258 L417.302,588.993 L417.302,588.993 C420.415,589.561 423.86,588.76 424.996,587.203 C426.132,585.647 424.53,583.925 421.417,583.357 C421.417,583.357 421.417,583.357 421.417,583.357 L420.356,583.25 L417.419,582.405 L414.655,580.936 L412.23,578.897 L410.273,576.399 L408.854,573.569 L408.007,570.531 L407.742,567.413 L408.055,564.336 L408.921,561.429 L410.286,558.821 L412.044,556.639 L414.013,554.983 L415.99,553.862 L418.067,553.161 L421.285,552.92 L423.882,553.135 C423.882,553.135 423.882,553.135 423.882,553.135 C427.151,553.405 430.24,552.298 430.78,550.664 C431.32,549.029 429.107,547.485 425.838,547.215 L425.838,547.215" fill="#000000"/>
    </g>
    <g>
      <path d="M401.853,401.667 C298.319,401.667 531.779,593.667 561.433,623.001 C591.087,652.334 719.957,658.27 706.52,647.001 C657.186,605.628 645.561,474.016 689.853,468.074 C734.145,462.131 569.206,401.667 401.853,401.667 z" fill="#EAEAEA"/>
      <g>
        <path d="M401.853,401.667 C298.319,401.667 531.779,593.667 561.433,623.001 C591.087,652.334 719.957,658.27 706.52,647.001 C657.186,605.628 645.561,474.016 689.853,468.074 C734.145,462.131 569.206,401.667 401.853,401.667 z" fill="#EAEAEA"/>
        <path d="M401.853,401.667 C298.319,401.667 531.779,593.667 561.433,623.001 C591.087,652.334 719.957,658.27 706.52,647.001 C657.186,605.628 645.561,474.016 689.853,468.074 C734.145,462.131 569.206,401.667 401.853,401.667 z" fill-opacity="0" stroke="#000000" stroke-width="8"/>
      </g>
    </g>
    <path d="M772.827,302.97 L773.633,303.288 L775.64,304.076 L778.14,305.057 L781.097,306.215 L784.477,307.536 L788.243,309.005 L794.54,311.456 L803.958,315.108 L814.285,319.092 L830.859,325.441 L847.887,331.888 L859.021,336.049 L869.647,339.964 L879.487,343.518 L886.186,345.88 L890.266,347.284 L893.99,348.533 L897.332,349.615 L900.263,350.517 L902.761,351.227 L904.824,351.739 L906.527,352.05 L907.612,352.154 L907.612,352.154 C909.255,352.261 910.76,351.682 910.975,350.861 C911.189,350.039 910.031,349.286 908.388,349.179 C908.388,349.179 908.388,349.179 908.388,349.179 L908.523,349.221 L907.478,349.048 L905.725,348.619 L903.407,347.962 L900.593,347.096 L897.333,346.042 L893.669,344.813 L889.645,343.429 L883.001,341.087 L873.207,337.549 L862.614,333.646 L851.51,329.496 L834.509,323.06 L817.952,316.718 L807.635,312.737 L798.226,309.089 L791.935,306.641 L788.173,305.173 L784.798,303.853 L781.844,302.697 L779.348,301.718 L777.345,300.931 L776.537,300.613 C775.235,300.101 773.349,300.213 772.325,300.864 C771.3,301.515 771.525,302.458 772.827,302.97 L772.827,302.97" fill="#000000"/>
    <path d="M952,278 C952.832,278 980,285 980,285 L944,330 L904,315.45 L952,278 z" fill="#2B2B2B"/>
    <path d="M387.191,312.378 C371.354,295.267 413.994,241.873 415.554,241.556 C417.114,241.239 904.921,393.649 904.856,394.616 C904.79,395.582 917.202,419.477 893.037,435.88 C868.872,452.283 403.028,329.488 387.191,312.378 z" fill="#AAB6FF" fill-opacity="0.5"/>
    <path d="M250.925,174.407 L247.924,177.149 L241.929,183.271 L236.064,190.041 L230.382,197.29 L222.275,208.737 L214.761,220.449 L210.144,228.157 L205.89,235.601 L202.034,242.637 L198.613,249.117 L195.666,254.891 L193.231,259.81 L191.347,263.724 L190.318,265.911 L189.824,266.977 L189.49,267.707 L189.319,268.082 L189.297,268.132 L189.297,268.132 C188.933,268.94 189.949,269.743 191.565,269.924 C193.182,270.106 194.787,269.598 195.151,268.79 L195.171,268.746 L195.338,268.377 L195.669,267.655 L196.158,266.599 L197.18,264.427 L199.055,260.532 L201.479,255.634 L204.414,249.883 L207.82,243.431 L211.659,236.425 L215.891,229.018 L220.474,221.366 L227.931,209.738 L235.968,198.385 L241.57,191.233 L247.318,184.591 L253.187,178.59 L256.189,175.847 C256.984,175.12 256.45,174.208 254.996,173.811 C253.543,173.413 251.72,173.68 250.925,174.407 L250.925,174.407" fill="#000000"/>
    <text transform="matrix(-0.493, -0.91, 1.035, 0.028, 556.158, 521.984)">
      <tspan x="-58.944" y="-7.5" font-family="LiHeiPro" font-size="48" fill="#000000">Open </tspan>
      <tspan x="-82.152" y="40.5" font-family="LiHeiPro" font-size="48" fill="#000000">Airlines</tspan>
    </text>
    <path d="M896.184,444.086 C887.067,445.459 829.848,433.393 731.551,418.634 C676.313,410.281 621.597,398.765 567.294,385.704 C528.98,376.487 490.915,366.116 453.34,354.231 C402.815,338.056 363.1,321.343 361.75,301.768 C358.876,273.764 390.605,232.599 431.715,232.443 C437.264,232.745 442.711,234.279 448.038,235.768 C462.904,239.922 477.513,245.039 492.064,250.164 C507.875,255.733 523.612,261.51 539.324,267.35 C587.712,285.336 635.837,304.016 684.132,322.245 C701.907,328.952 719.694,335.633 737.594,342 C746.091,345.022 754.634,348.248 763.329,350.67 C767.93,351.952 772.538,353.206 777.153,354.43 C810.614,363.302 840.789,373.644 874.447,381.729 C884.201,384.073 895.953,387.264 905.706,389.615 C924.055,394.181 905.301,442.714 896.184,444.086 z M445.463,325.038 C449.486,325.735 453.796,326.605 457.688,324.914 C468.39,318.746 485.707,278.637 478.279,268.971 C470.852,259.305 435.976,244.113 421.186,248.749 C406.396,253.386 385.422,293.734 389.355,300.022 C393.313,304.363 402.03,308.552 407.284,311.051 C418.06,316.173 429.069,320.529 440.519,323.876 z M538.759,351.133 C551.948,347.447 566.324,314.954 561.161,302.74 C555.998,290.527 522.487,276.994 506.345,283.729 C490.203,290.464 476.95,326.972 485.788,334.428 C494.626,341.885 525.57,354.82 538.759,351.133 z M616.401,375.615 C628.516,372.229 641.72,342.385 636.977,331.167 C632.235,319.949 601.455,307.519 586.629,313.706 C571.804,319.892 559.631,353.424 567.748,360.272 C575.866,367.12 604.287,379.001 616.401,375.615 z M693.349,395.479 C704.666,392.316 717.003,364.434 712.572,353.953 C708.142,343.473 679.385,331.86 665.535,337.64 C651.684,343.419 640.311,374.746 647.895,381.145 C655.48,387.543 682.032,398.642 693.349,395.479 z M767.413,409.435 C777.272,406.679 788.019,382.391 784.159,373.261 C780.3,364.131 755.25,354.014 743.183,359.05 C731.117,364.084 721.209,391.375 727.816,396.948 C734.423,402.522 757.554,412.19 767.413,409.435 z M832.222,421.889 C840.801,419.491 850.154,398.352 846.795,390.407 C843.436,382.461 821.635,373.658 811.134,378.039 C800.634,382.421 792.011,406.171 797.761,411.021 C803.511,415.872 823.641,424.287 832.222,421.889 z M891.578,433.599 C898.66,431.62 906.379,414.171 903.607,407.614 C900.835,401.055 882.84,393.789 874.172,397.405 C865.505,401.022 858.388,420.625 863.134,424.629 C867.881,428.632 884.496,435.578 891.578,433.599 z" fill="#6E0000"/>
    <g>
      <g>
        <path d="M421.777,248.94 C436.56,244.283 471.458,259.425 478.898,269.08 C486.34,278.736 469.081,318.869 458.387,325.053 C447.694,331.237 393.962,306.54 390.019,300.258 C386.077,293.976 406.993,253.598 421.777,248.94 z" fill="#AAB6FF" fill-opacity="0.5"/>
        <path d="M421.777,248.94 C436.56,244.283 471.458,259.425 478.898,269.08 C486.34,278.736 469.081,318.869 458.387,325.053 C447.694,331.237 393.962,306.54 390.019,300.258 C386.077,293.976 406.993,253.598 421.777,248.94 z" fill-opacity="0" stroke="#151515" stroke-width="1"/>
      </g>
      <path d="M421.777,248.94 C436.56,244.283 471.458,259.425 478.898,269.08 C486.34,278.736 469.081,318.869 458.387,325.053 C447.694,331.237 393.962,306.54 390.019,300.258 C386.077,293.976 406.993,253.598 421.777,248.94 z" fill-opacity="0" stroke="#151515" stroke-width="8"/>
    </g>
    <g>
      <g>
        <path d="M506.986,283.798 C523.118,277.04 556.648,290.525 561.829,302.731 C567.009,314.937 552.679,347.451 539.496,351.156 C526.312,354.861 495.35,341.971 486.501,334.527 C477.652,327.083 490.853,290.557 506.986,283.798 z" fill="#AAB6FF" fill-opacity="0.5"/>
        <path d="M506.986,283.798 C523.118,277.04 556.648,290.525 561.829,302.731 C567.009,314.937 552.679,347.451 539.496,351.156 C526.312,354.861 495.35,341.971 486.501,334.527 C477.652,327.083 490.853,290.557 506.986,283.798 z" fill-opacity="0" stroke="#151515" stroke-width="1"/>
      </g>
      <path d="M506.986,283.798 C523.118,277.04 556.648,290.525 561.829,302.731 C567.009,314.937 552.679,347.451 539.496,351.156 C526.312,354.861 495.35,341.971 486.501,334.527 C477.652,327.083 490.853,290.557 506.986,283.798 z" fill-opacity="0" stroke="#151515" stroke-width="8"/>
    </g>
    <g>
      <g>
        <path d="M587.313,313.66 C602.129,307.452 632.927,319.839 637.685,331.05 C642.444,342.261 629.282,372.124 617.173,375.527 C605.063,378.93 576.625,367.09 568.498,360.253 C560.371,353.417 572.496,319.868 587.313,313.66 z" fill="#AAB6FF" fill-opacity="0.5"/>
        <path d="M587.313,313.66 C602.129,307.452 632.927,319.839 637.685,331.05 C642.444,342.261 629.282,372.124 617.173,375.527 C605.063,378.93 576.625,367.09 568.498,360.253 C560.371,353.417 572.496,319.868 587.313,313.66 z" fill-opacity="0" stroke="#151515" stroke-width="1"/>
      </g>
      <path d="M587.313,313.66 C602.129,307.452 632.927,319.839 637.685,331.05 C642.444,342.261 629.282,372.124 617.173,375.527 C605.063,378.93 576.625,367.09 568.498,360.253 C560.371,353.417 572.496,319.868 587.313,313.66 z" fill-opacity="0" stroke="#151515" stroke-width="8"/>
    </g>
    <g>
      <g>
        <path d="M666.253,337.482 C680.095,331.682 708.868,343.254 713.313,353.728 C717.758,364.202 705.462,392.102 694.149,395.281 C682.837,398.46 656.268,387.399 648.675,381.011 C641.081,374.624 652.41,343.281 666.253,337.482 z" fill="#AAB6FF" fill-opacity="0.5"/>
        <path d="M666.253,337.482 C680.095,331.682 708.868,343.254 713.313,353.728 C717.758,364.202 705.462,392.102 694.149,395.281 C682.837,398.46 656.268,387.399 648.675,381.011 C641.081,374.624 652.41,343.281 666.253,337.482 z" fill-opacity="0" stroke="#151515" stroke-width="1"/>
      </g>
      <path d="M666.253,337.482 C680.095,331.682 708.868,343.254 713.313,353.728 C717.758,364.202 705.462,392.102 694.149,395.281 C682.837,398.46 656.268,387.399 648.675,381.011 C641.081,374.624 652.41,343.281 666.253,337.482 z" fill-opacity="0" stroke="#151515" stroke-width="8"/>
    </g>
    <g>
      <g>
        <path d="M811.909,377.672 C822.404,373.276 844.217,382.049 847.587,389.989 C850.958,397.93 841.635,419.082 833.059,421.492 C824.482,423.903 804.34,415.516 798.583,410.674 C792.826,405.832 801.415,382.069 811.909,377.672 z" fill="#AAB6FF" fill-opacity="0.5"/>
        <path d="M811.909,377.672 C822.404,373.276 844.217,382.049 847.587,389.989 C850.958,397.93 841.635,419.082 833.059,421.492 C824.482,423.903 804.34,415.516 798.583,410.674 C792.826,405.832 801.415,382.069 811.909,377.672 z" fill-opacity="0" stroke="#151515" stroke-width="1"/>
      </g>
      <path d="M811.909,377.672 C822.404,373.276 844.217,382.049 847.587,389.989 C850.958,397.93 841.635,419.082 833.059,421.492 C824.482,423.903 804.34,415.516 798.583,410.674 C792.826,405.832 801.415,382.069 811.909,377.672 z" fill-opacity="0" stroke="#151515" stroke-width="8"/>
    </g>
    <g>
      <g>
        <path d="M874.975,396.948 C883.638,393.32 901.642,400.561 904.424,407.115 C907.206,413.669 899.511,431.129 892.432,433.117 C885.353,435.107 868.728,428.185 863.976,424.189 C859.224,420.191 866.313,400.578 874.975,396.948 z" fill="#AAB6FF" fill-opacity="0.5"/>
        <path d="M874.975,396.948 C883.638,393.32 901.642,400.561 904.424,407.115 C907.206,413.669 899.511,431.129 892.432,433.117 C885.353,435.107 868.728,428.185 863.976,424.189 C859.224,420.191 866.313,400.578 874.975,396.948 z" fill-opacity="0" stroke="#151515" stroke-width="1"/>
      </g>
      <path d="M874.975,396.948 C883.638,393.32 901.642,400.561 904.424,407.115 C907.206,413.669 899.511,431.129 892.432,433.117 C885.353,435.107 868.728,428.185 863.976,424.189 C859.224,420.191 866.313,400.578 874.975,396.948 z" fill-opacity="0" stroke="#151515" stroke-width="8"/>
    </g>
    <g>
      <g>
        <path d="M743.931,358.78 C755.99,353.728 781.055,363.809 784.927,372.933 C788.8,382.057 778.088,406.361 768.233,409.131 C758.378,411.9 735.233,402.265 728.618,396.701 C722.003,391.137 731.872,363.832 743.931,358.78 z" fill="#AAB6FF" fill-opacity="0.5"/>
        <path d="M743.931,358.78 C755.99,353.728 781.055,363.809 784.927,372.933 C788.8,382.057 778.088,406.361 768.233,409.131 C758.378,411.9 735.233,402.265 728.618,396.701 C722.003,391.137 731.872,363.832 743.931,358.78 z" fill-opacity="0" stroke="#151515" stroke-width="1"/>
      </g>
      <path d="M743.931,358.78 C755.99,353.728 781.055,363.809 784.927,372.933 C788.8,382.057 778.088,406.361 768.233,409.131 C758.378,411.9 735.233,402.265 728.618,396.701 C722.003,391.137 731.872,363.832 743.931,358.78 z" fill-opacity="0" stroke="#151515" stroke-width="8"/>
    </g>
  </g>
  <defs/>
</svg>
